<svg width="200" height="200" viewBox="0 0 200 200" xmlns="http://www.w3.org/2000/svg">
  <!-- Robot head -->
  <circle cx="100" cy="60" r="30" fill="#445878" />

  <!-- Robot body -->
  <rect x="80" y="90" width="40" height="50" fill="#445878" />

  <!-- Robot arms -->
  <line x1="60" y1="100" x2="80" y2="100" stroke="#445878" stroke-width="6" />
  <line x1="120" y1="100" x2="140" y2="100" stroke="#445878" stroke-width="6" />

  <!-- Robot legs -->
  <line x1="90" y1="140" x2="90" y2="170" stroke="#445878" stroke-width="6" />
  <line x1="110" y1="140" x2="110" y2="170" stroke="#445878" stroke-width="6" />

  <!-- AI circuit pattern on head -->
  <path d="M85 70 L95 70 M105 70 L115 70 M88 75 L98 75 M102 75 L112 75" stroke="#879ccc" stroke-width="2" />

  <!-- ROS connection nodes -->
  <circle cx="90" cy="80" r="3" fill="#879ccc" />
  <circle cx="110" cy="80" r="3" fill="#879ccc" />
  <circle cx="100" cy="130" r="3" fill="#879ccc" />

  <!-- Vision-Language-Action indicators -->
  <path d="M70 120 L75 125 L70 130 M130 120 L125 125 L130 130" stroke="#879ccc" stroke-width="2" fill="none" />
  <path d="M100 40 L100 30 M95 35 L105 35" stroke="#879ccc" stroke-width="2" fill="none" />
</svg>